<!-- Generated by IcoMoon.io -->
<svg version="1.1" xmlns="http://www.w3.org/2000/svg" width="960" height="960" viewBox="0 0 960 960">
<title></title>
<g id="icomoon-ignore">
</g>
<path fill="#000" d="M480.001 83.873c-218.775 0-396.127 177.351-396.127 396.127s177.353 396.128 396.127 396.128 396.127-177.351 396.127-396.127c0-218.777-177.349-396.127-396.127-396.127zM138.895 620.007c21.095-24.86 87.643-53.661 143.392-35.168-6.098-15.551-19.749-23.538-37.878-27.058 45.497-1.302 72.739 39.086 91.985 73.045-32.583-33.382-146.965-46.908-197.498-10.82zM312.741 710.154c-7.771 2.652-15.905 4.296-24.096 4.873-2.735 0.188-6.989-0.766-9.565-0.053 24.228-6.663 50.466-16.555 66.383-37.064 20.543-26.461 20.933-60.744 10.649-91.103-5.526-16.311-12.724-31.944-21.77-46.607-18.616-30.173-36.629-61.462-45.188-96.183-2.49-10.125-4.086-20.489-5.015-30.869-0.955-10.633-1.051-21.359-0.278-32.011 0.764-10.446 3.409-21.496 7.014-31.304 13.677-37.11 47.33-68.47 84.943-80.451 12.003-3.827 24.903-6.217 37.415-7.495 8.583-0.878 17.433-0.949 26.039-0.515 3.972 0.203 7.936 0.561 11.883 1.063 1.933 0.237 3.872 0.516 5.797 0.832 4.62 0.743 9.221 1.644 13.763 2.791 3.637 0.925 7.223 2.002 10.763 3.267 11.859 4.223 23.839 10.125 33.302 18.546 0.395 0.351 2.762 2.709 1.236 2.369-0.816-0.182-2.303-0.72-2.813-0.905-3.068-1.095-6.058-2.433-9.075-3.662-9.861-4.012-19.913-7.286-30.501-8.681-4.62-0.607-9.267-0.992-13.924-1.256-36.489-2.135-78.476 6.781-107.373 30.203-35.437 28.728-48.863 71.446-39.202 115.333 7.662 34.816 22.393 66.563 39.707 97.549 5.692 10.195 11.042 20.663 15.67 31.386 13.693 31.676 24.766 70.493 9.45 103.664-11.953 25.877-38.441 47.136-65.197 56.282zM439.197 338.644c-11.77-1.853-14.973 4.87-18.938 10.82 1.806 10.822 13.419 11.832 27.058 10.82-8.33 9.169-29.035 5.519-35.168-2.709-1.485-10.791-1.485-8.148 0-18.938-2.442-6.529-15.273-1.156-16.229 2.709 7.014-34.674 92.402-23.396 100.103 10.82-2.455-1.272-18.596-11.978-29.758-13.529-10.822 1.806-14.16 11.093-27.058 10.82-0.248-7.382 4.506-5.45 0-10.82zM360.742 747.169c92.608 58.628 182.497-95.301 110.923-178.559 69.444 39.673 33.824 194.113-48.694 216.437 22.424 38.898 74.945 50.408 129.859 56.816-100.543 15.761-161.865-31.124-192.088-94.694zM715.878 408.539c-0.188 6.679-0.55 13.342-0.903 20.007-0.955 18.039-5.243 35.671-7.935 53.482-10.722-29.365-25.972-51.108-62.227-54.107-80.999-6.709-188.531 61.14-205.617 121.743 10.748-91.516 105.030-136.173 213.728-129.862-1.046-0.066-1.886-16.672-2.038-18.242-0.468-5.204-0.925-10.471-2.020-15.594-0.65-3.020-1.597-5.99-2.99-8.753-2.905-5.778-7.177-11.168-12.351-15.070-3.106-2.344-6.636-4.252-10.191-5.822-17.783-7.826-36.323-9.417-55.080-13.349-13.643-2.861-26.998-6.248-34.216-19.155-3.808-6.803-9.683-15.672 1.345-18.041 27.173-5.843 58.437-4.018 85.849-0.214 16.242 2.253 31.734 7.363 46.655 14.072 12.898 5.803 27.106 12.44 35.448 24.366 12.923 18.436 13.157 42.922 12.533 64.549z"></path>
</svg>
